<?xml version="1.0" encoding="UTF-8"?>
<!DOCTYPE svg PUBLIC "-//W3C//DTD SVG 1.1//EN" "http://www.w3.org/Graphics/SVG/1.1/DTD/svg11.dtd">
<svg xmlns="http://www.w3.org/2000/svg" version="1.1" width="512px" height="512px" style="shape-rendering:geometricPrecision; text-rendering:geometricPrecision; image-rendering:optimizeQuality; fill-rule:evenodd; clip-rule:evenodd" xmlns:xlink="http://www.w3.org/1999/xlink">
<g><path style="opacity:0.938" fill="#000000" d="M 252.5,12.5 C 284.414,21.0426 309.581,39.0426 328,66.5C 340.992,90.4261 344.658,115.759 339,142.5C 337.595,152.455 335.095,162.122 331.5,171.5C 331.833,171.833 332.167,172.167 332.5,172.5C 397.709,124.62 455.876,131.954 507,194.5C 504.488,277.341 461.655,318.508 378.5,318C 444.432,364.395 455.932,421.895 413,490.5C 333.847,514.34 281.347,487.007 255.5,408.5C 230.288,485.944 178.288,513.777 99.5,492C 54.6504,423.253 65.6504,365.253 132.5,318C 105.483,318.198 79.8163,312.531 55.5,301C 31.5915,285.728 16.0915,264.228 9,236.5C 4.26412,222.049 2.93079,207.382 5,192.5C 56.9921,131.443 114.992,125.11 179,173.5C 153.716,96.7522 178.216,43.0856 252.5,12.5 Z M 254.5,31.5 C 316.348,56.545 336.514,100.878 315,164.5C 303.464,196.924 286.797,226.257 265,252.5C 264.986,219.081 264.32,185.748 263,152.5C 259.662,149.682 255.829,148.849 251.5,150C 249.333,150.833 247.833,152.333 247,154.5C 246.667,184.5 246.333,214.5 246,244.5C 236.2,229.919 225.2,216.252 213,203.5C 197.361,176.284 188.861,146.951 187.5,115.5C 188.013,97.4906 193.846,81.4906 205,67.5C 218.88,51.7709 235.38,39.7709 254.5,31.5 Z M 410.5,158.5 C 434.037,160.104 454.704,168.604 472.5,184C 478,189.5 483.5,195 489,200.5C 483.893,267.598 447.56,300.598 380,299.5C 345.992,298.298 313.158,291.465 281.5,279C 312.167,269 342.833,259 373.5,249C 378.028,244.599 378.694,239.599 375.5,234C 373.412,232.97 371.245,232.137 369,231.5C 340.669,240.785 312.503,249.452 284.5,257.5C 295.246,243.685 304.746,229.018 313,213.5C 334.766,189.695 360.933,172.529 391.5,162C 397.906,160.438 404.24,159.271 410.5,158.5 Z M 233.5,260.5 C 202.852,250.84 172.185,241.173 141.5,231.5C 134.001,233.5 131.501,238.167 134,245.5C 135.167,246.667 136.333,247.833 137.5,249C 165.167,258 192.833,267 220.5,276C 204.148,281.342 188.148,287.675 172.5,295C 138.576,302.46 105.243,300.46 72.5,289C 49.6363,276.478 34.4696,257.644 27,232.5C 23.6449,222.065 21.9782,211.398 22,200.5C 39.7119,179.142 62.2119,165.642 89.5,160C 104.446,158.547 118.78,160.88 132.5,167C 175.322,188.324 208.989,219.491 233.5,260.5 Z M 253.5,269.5 C 260.465,269.961 263.632,273.628 263,280.5C 260.774,284.861 257.274,286.361 252.5,285C 245.754,279.512 246.088,274.346 253.5,269.5 Z M 230.5,292.5 C 232.028,292.517 232.528,293.184 232,294.5C 214.911,318.344 197.578,342.011 180,365.5C 174.88,371.551 175.38,377.051 181.5,382C 184.964,382.817 188.298,382.483 191.5,381C 208.789,357.589 225.956,334.089 243,310.5C 252.86,362.38 242.526,409.713 212,452.5C 193.691,472.058 171.024,481.724 144,481.5C 132.629,481.09 121.463,479.423 110.5,476.5C 94.6106,452.007 88.7772,425.34 93,396.5C 96.3341,382.855 102.667,370.855 112,360.5C 133.448,337.689 158.615,320.189 187.5,308C 201.611,301.91 215.944,296.743 230.5,292.5 Z M 282.5,298.5 C 299.365,304.841 316.698,309.675 334.5,313C 367.533,328.037 393.7,350.871 413,381.5C 421.564,404.446 421.564,427.446 413,450.5C 409.635,459.563 405.468,468.23 400.5,476.5C 376.242,483.488 352.242,482.655 328.5,474C 313.649,467.817 301.816,457.984 293,444.5C 273.197,410.966 262.863,374.633 262,335.5C 261.333,324.833 261.333,314.167 262,303.5C 281.36,329.359 300.526,355.359 319.5,381.5C 322.889,383.49 326.556,383.99 330.5,383C 335.158,378.236 335.658,373.07 332,367.5C 314.991,344.794 298.491,321.794 282.5,298.5 Z"/></g>
</svg>
