<?xml version="1.0" encoding="UTF-8"?>
<!DOCTYPE svg PUBLIC "-//W3C//DTD SVG 1.1//EN" "http://www.w3.org/Graphics/SVG/1.1/DTD/svg11.dtd">
<svg xmlns="http://www.w3.org/2000/svg" version="1.1" width="512px" height="512px" style="shape-rendering:geometricPrecision; text-rendering:geometricPrecision; image-rendering:optimizeQuality; fill-rule:evenodd; clip-rule:evenodd" xmlns:xlink="http://www.w3.org/1999/xlink">
<g><path style="opacity:0.964" fill="#000000" d="M 385.5,-0.5 C 394.833,-0.5 404.167,-0.5 413.5,-0.5C 468.5,9.83333 501.167,42.5 511.5,97.5C 511.5,105.833 511.5,114.167 511.5,122.5C 506.907,141.379 499.74,159.379 490,176.5C 466.702,215.252 439.868,251.418 409.5,285C 402.833,288.333 396.167,288.333 389.5,285C 360.718,253.586 335.218,219.752 313,183.5C 301.536,164.439 293.203,144.106 288,122.5C 284.801,74.3921 303.635,37.8921 344.5,13C 357.596,6.35635 371.263,1.85635 385.5,-0.5 Z M 387.5,32.5 C 427.265,29.6209 455.765,45.9542 473,81.5C 478.984,96.5213 479.984,111.855 476,127.5C 466.584,151.006 454.584,173.006 440,193.5C 427.424,211.573 413.924,228.906 399.5,245.5C 371.594,213.4 347.761,178.4 328,140.5C 312.828,100.685 322.662,68.5188 357.5,44C 367.062,38.652 377.062,34.8187 387.5,32.5 Z M 394.5,96.5 C 411.765,96.2567 417.598,104.257 412,120.5C 405.749,127.011 398.582,128.177 390.5,124C 383.989,117.749 382.823,110.582 387,102.5C 389.114,99.8792 391.614,97.8792 394.5,96.5 Z"/></g>
<g><path style="opacity:0.965" fill="#000000" d="M 389.5,63.5 C 419.16,60.5645 438.326,73.2311 447,101.5C 450.421,131.18 437.921,150.346 409.5,159C 379.82,162.421 360.654,149.921 352,121.5C 348.704,91.7225 361.204,72.3892 389.5,63.5 Z M 394.5,96.5 C 391.614,97.8792 389.114,99.8792 387,102.5C 382.823,110.582 383.989,117.749 390.5,124C 398.582,128.177 405.749,127.011 412,120.5C 417.598,104.257 411.765,96.2567 394.5,96.5 Z"/></g>
<g><path style="opacity:0.983" fill="#000000" d="M 511.5,233.5 C 511.5,301.5 511.5,369.5 511.5,437.5C 509.353,441.811 506.02,444.978 501.5,447C 447.947,468.233 394.614,489.733 341.5,511.5C 337.5,511.5 333.5,511.5 329.5,511.5C 278.476,490.331 227.143,469.664 175.5,449.5C 123.857,469.664 72.5235,490.331 21.5,511.5C 17.5,511.5 13.5,511.5 9.5,511.5C 5.16667,509.167 1.83333,505.833 -0.5,501.5C -0.5,401.5 -0.5,301.5 -0.5,201.5C 1.6467,197.189 4.98004,194.022 9.5,192C 62.8333,170.667 116.167,149.333 169.5,128C 173.5,127.333 177.5,127.333 181.5,128C 213.087,140.862 244.754,153.529 276.5,166C 287.459,171.102 290.625,179.268 286,190.5C 280.41,197.919 273.243,200.086 264.5,197C 240.262,187.296 216.095,177.463 192,167.5C 191.5,251.833 191.333,336.166 191.5,420.5C 234.167,437.167 276.833,453.833 319.5,470.5C 319.333,412.832 319.5,355.166 320,297.5C 326.133,286.94 334.633,284.44 345.5,290C 348.106,291.938 349.939,294.438 351,297.5C 351.5,355.166 351.667,412.832 351.5,470.5C 393.956,454.235 436.289,437.568 478.5,420.5C 479.333,358.169 479.833,295.836 480,233.5C 482.807,226.513 487.973,223.18 495.5,223.5C 503.115,223.302 508.449,226.635 511.5,233.5 Z M 158.5,167.5 C 159.499,251.665 159.833,335.998 159.5,420.5C 116.833,437.167 74.1667,453.833 31.5,470.5C 31.1667,386.497 31.5,302.497 32.5,218.5C 74.7601,201.865 116.76,184.865 158.5,167.5 Z"/></g>
</svg>
