<?xml version="1.0" encoding="UTF-8"?>
<!DOCTYPE svg PUBLIC "-//W3C//DTD SVG 1.1//EN" "http://www.w3.org/Graphics/SVG/1.1/DTD/svg11.dtd">
<svg xmlns="http://www.w3.org/2000/svg" version="1.1" width="512px" height="512px" style="shape-rendering:geometricPrecision; text-rendering:geometricPrecision; image-rendering:optimizeQuality; fill-rule:evenodd; clip-rule:evenodd" xmlns:xlink="http://www.w3.org/1999/xlink">
<g><path style="opacity:0.977" fill="#000000" d="M 249.5,-0.5 C 253.5,-0.5 257.5,-0.5 261.5,-0.5C 265.811,1.6467 268.978,4.98004 271,9.5C 271.667,28.8333 271.667,48.1667 271,67.5C 268.193,74.487 263.027,77.8203 255.5,77.5C 247.973,77.8203 242.807,74.487 240,67.5C 239.333,48.1667 239.333,28.8333 240,9.5C 242.022,4.98004 245.189,1.6467 249.5,-0.5 Z"/></g>
<g><path style="opacity:0.949" fill="#000000" d="M 83.5,69.5 C 88.1821,69.338 92.5155,70.5046 96.5,73C 108.333,84.8333 120.167,96.6667 132,108.5C 137.771,122.964 133.105,131.631 118,134.5C 114.617,134.483 111.45,133.65 108.5,132C 96.6667,120.167 84.8333,108.333 73,96.5C 66.6638,83.438 70.1638,74.438 83.5,69.5 Z"/></g>
<g><path style="opacity:0.949" fill="#000000" d="M 421.5,69.5 C 433.422,69.1119 440.088,74.7786 441.5,86.5C 441.031,90.0743 439.864,93.4076 438,96.5C 426.167,108.333 414.333,120.167 402.5,132C 394.388,135.94 386.888,135.106 380,129.5C 375.807,122.703 375.474,115.703 379,108.5C 390.833,96.6667 402.667,84.8333 414.5,73C 416.925,71.7874 419.259,70.6207 421.5,69.5 Z"/></g>
<g><path style="opacity:0.72" fill="#000000" d="M 238.5,105.5 C 300.893,101.282 349.393,124.949 384,176.5C 404.867,212.086 410.867,250.086 402,290.5C 388.179,341.656 356.679,377.156 307.5,397C 242.165,417.21 186.332,402.377 140,352.5C 108.937,313.546 98.6038,269.546 109,220.5C 119.974,177.373 144.808,144.873 183.5,123C 200.925,113.902 219.258,108.068 238.5,105.5 Z M 254.5,137.5 C 288.12,138.232 316.62,150.565 340,174.5C 338.506,230.322 315.673,275.156 271.5,309C 242.54,329.764 210.207,340.097 174.5,340C 139.897,304.418 130.063,262.918 145,215.5C 165.58,167.078 202.08,141.078 254.5,137.5 Z"/></g>
<g><path style="opacity:0.977" fill="#000000" d="M -0.5,261.5 C -0.5,257.5 -0.5,253.5 -0.5,249.5C 1.6467,245.189 4.98004,242.022 9.5,240C 28.8333,239.333 48.1667,239.333 67.5,240C 74.487,242.807 77.8203,247.973 77.5,255.5C 77.8203,263.027 74.487,268.193 67.5,271C 48.1667,271.667 28.8333,271.667 9.5,271C 4.98004,268.978 1.6467,265.811 -0.5,261.5 Z"/></g>
<g><path style="opacity:0.977" fill="#000000" d="M 511.5,249.5 C 511.5,253.5 511.5,257.5 511.5,261.5C 509.353,265.811 506.02,268.978 501.5,271C 482.167,271.667 462.833,271.667 443.5,271C 436.513,268.193 433.18,263.027 433.5,255.5C 433.18,247.973 436.513,242.807 443.5,240C 462.833,239.333 482.167,239.333 501.5,240C 506.02,242.022 509.353,245.189 511.5,249.5 Z"/></g>
<g><path style="opacity:0.951" fill="#000000" d="M 113.5,376.5 C 131.555,376.72 137.721,385.387 132,402.5C 119.833,414.667 107.667,426.833 95.5,439C 84.1386,444.525 75.6386,441.691 70,430.5C 69.0229,425.266 69.6896,420.266 72,415.5C 84.1667,403.333 96.3333,391.167 108.5,379C 110.315,378.243 111.981,377.41 113.5,376.5 Z"/></g>
<g><path style="opacity:0.949" fill="#000000" d="M 388.5,376.5 C 393.412,376.063 398.078,376.896 402.5,379C 414.333,390.833 426.167,402.667 438,414.5C 443.719,425.125 441.553,433.625 431.5,440C 425.507,442.28 419.84,441.613 414.5,438C 402.667,426.167 390.833,414.333 379,402.5C 373.801,390.586 376.967,381.919 388.5,376.5 Z"/></g>
<g><path style="opacity:0.977" fill="#000000" d="M 261.5,511.5 C 257.5,511.5 253.5,511.5 249.5,511.5C 245.189,509.353 242.022,506.02 240,501.5C 239.333,482.167 239.333,462.833 240,443.5C 242.807,436.513 247.973,433.18 255.5,433.5C 263.027,433.18 268.193,436.513 271,443.5C 271.667,462.833 271.667,482.167 271,501.5C 268.978,506.02 265.811,509.353 261.5,511.5 Z"/></g>
</svg>
