<?xml version="1.0" encoding="UTF-8"?>
<!DOCTYPE svg PUBLIC "-//W3C//DTD SVG 1.1//EN" "http://www.w3.org/Graphics/SVG/1.1/DTD/svg11.dtd">
<svg xmlns="http://www.w3.org/2000/svg" version="1.1" width="512px" height="512px" style="shape-rendering:geometricPrecision; text-rendering:geometricPrecision; image-rendering:optimizeQuality; fill-rule:evenodd; clip-rule:evenodd" xmlns:xlink="http://www.w3.org/1999/xlink">
<g><path style="opacity:0.971" fill="#000000" d="M 242.5,-0.5 C 251.167,-0.5 259.833,-0.5 268.5,-0.5C 297.969,5.49971 319.136,22.1664 332,49.5C 335.102,57.5739 337.102,65.9073 338,74.5C 338.167,137.503 338.667,200.503 339.5,263.5C 381.784,297.82 399.284,342.153 392,396.5C 380.773,451.055 348.939,487.555 296.5,506C 288.437,508.175 280.437,510.009 272.5,511.5C 261.167,511.5 249.833,511.5 238.5,511.5C 186.084,502.698 148.917,474.031 127,425.5C 108.531,373.766 116.197,326.433 150,283.5C 156.715,276.283 163.882,269.616 171.5,263.5C 172.333,200.503 172.833,137.503 173,74.5C 176.761,42.7877 192.928,19.9543 221.5,6C 228.472,3.34685 235.472,1.18019 242.5,-0.5 Z M 246.5,38.5 C 265.506,35.9265 280.672,42.2598 292,57.5C 294.551,61.9346 296.551,66.6012 298,71.5C 299.147,142.138 299.981,212.805 300.5,283.5C 348.988,314.457 364.488,357.457 347,412.5C 328.446,450.524 297.946,470.857 255.5,473.5C 211.589,470.814 180.756,449.481 163,409.5C 147.203,355.448 163.037,313.448 210.5,283.5C 211.333,214.836 211.833,146.169 212,77.5C 215.264,57.0764 226.764,44.0764 246.5,38.5 Z"/></g>
<g><path style="opacity:0.983" fill="#000000" d="M 371.5,63.5 C 399.835,63.3334 428.169,63.5 456.5,64C 466.979,68.3805 470.812,76.2138 468,87.5C 466.167,93.3333 462.333,97.1667 456.5,99C 428.167,99.6667 399.833,99.6667 371.5,99C 359.58,92.2373 356.746,82.7373 363,70.5C 365.441,67.5464 368.275,65.2131 371.5,63.5 Z"/></g>
<g><path style="opacity:0.988" fill="#000000" d="M 249.5,131.5 C 260.51,129.587 268.344,133.587 273,143.5C 273.167,196.836 273.667,250.17 274.5,303.5C 312.592,316.991 330.092,343.991 327,384.5C 318.65,423.019 294.816,443.352 255.5,445.5C 224.573,444.625 202.406,430.291 189,402.5C 176.794,367.814 184.628,338.648 212.5,315C 219.83,309.836 227.83,306.002 236.5,303.5C 237.333,250.17 237.833,196.836 238,143.5C 239.993,137.675 243.826,133.675 249.5,131.5 Z"/></g>
<g><path style="opacity:0.957" fill="#000000" d="M 372.5,140.5 C 388.503,140.333 404.503,140.5 420.5,141C 430.575,145.65 434.408,153.484 432,164.5C 429.42,171.873 424.254,176.04 416.5,177C 401.445,177.934 386.445,177.6 371.5,176C 359.58,169.237 356.746,159.737 363,147.5C 365.825,144.524 368.992,142.191 372.5,140.5 Z"/></g>
<g><path style="opacity:0.964" fill="#000000" d="M 372.5,217.5 C 400.169,217.333 427.835,217.5 455.5,218C 466.621,222.404 470.787,230.571 468,242.5C 465.227,248.94 460.394,252.774 453.5,254C 426.118,254.965 398.784,254.632 371.5,253C 359.584,246.249 356.75,236.749 363,224.5C 365.79,221.535 368.957,219.202 372.5,217.5 Z"/></g>
</svg>
