<?xml version="1.0" encoding="UTF-8"?>
<!DOCTYPE svg PUBLIC "-//W3C//DTD SVG 1.1//EN" "http://www.w3.org/Graphics/SVG/1.1/DTD/svg11.dtd">
<svg xmlns="http://www.w3.org/2000/svg" version="1.1" width="512px" height="512px" style="shape-rendering:geometricPrecision; text-rendering:geometricPrecision; image-rendering:optimizeQuality; fill-rule:evenodd; clip-rule:evenodd" xmlns:xlink="http://www.w3.org/1999/xlink">
<g><path style="opacity:0.943" fill="#000000" d="M 236.5,-0.5 C 239.5,-0.5 242.5,-0.5 245.5,-0.5C 247.437,0.93142 249.27,2.59809 251,4.5C 278,44.8333 305,85.1667 332,125.5C 341.538,112.26 350.704,98.7597 359.5,85C 366.01,81.0937 371.843,81.927 377,87.5C 400.581,122.328 423.915,157.328 447,192.5C 461.626,225.141 459.292,256.475 440,286.5C 436.034,291.467 431.701,296.134 427,300.5C 433.535,379.588 404.035,441.088 338.5,485C 314.2,499.155 288.2,507.988 260.5,511.5C 247.5,511.5 234.5,511.5 221.5,511.5C 148.359,500.512 96.8586,461.178 67,393.5C 46.8922,337.678 50.8922,283.678 79,231.5C 128,158.5 177,85.5 226,12.5C 229.05,7.69104 232.55,3.35771 236.5,-0.5 Z M 240.5,28.5 C 266.97,67.1557 293.304,105.989 319.5,145C 308.609,160.227 298.109,175.727 288,191.5C 271.157,228.591 275.49,262.924 301,294.5C 331.443,323.822 366.276,330.488 405.5,314.5C 408.777,367.83 390.777,412.663 351.5,449C 299.972,491.436 242.639,501.436 179.5,479C 136.727,461.227 106.227,431.061 88,388.5C 69.3807,340.122 71.714,292.788 95,246.5C 143.748,173.934 192.248,101.267 240.5,28.5 Z M 366.5,112.5 C 368.074,112.937 369.241,113.937 370,115.5C 388.419,143.339 407.086,171.006 426,198.5C 440.319,226.115 438.319,252.449 420,277.5C 394.103,304.2 364.603,309.033 331.5,292C 304.875,273.571 294.708,248.404 301,216.5C 302.552,210.511 304.885,204.844 308,199.5C 327.722,170.619 347.222,141.619 366.5,112.5 Z"/></g>
<g><path style="opacity:0.934" fill="#000000" d="M 323.5,202.5 C 329.583,202.286 333.75,204.952 336,210.5C 334.864,217.273 333.697,224.106 332.5,231C 333.273,244.044 339.107,254.211 350,261.5C 353.724,268.437 352.224,273.937 345.5,278C 340.632,279.186 336.298,278.186 332.5,275C 312.03,256.618 306.53,234.451 316,208.5C 318.109,205.878 320.609,203.878 323.5,202.5 Z"/></g>
<g><path style="opacity:0.939" fill="#000000" d="M 128.5,241.5 C 139.657,241.505 143.823,246.838 141,257.5C 114.217,295.801 110.217,336.468 129,379.5C 144.551,409.379 168.385,429.546 200.5,440C 206.025,442.919 207.858,447.419 206,453.5C 201.438,460.849 195.271,462.349 187.5,458C 129.437,434.242 99.1033,390.909 96.5,328C 96.3175,297.549 105.151,270.049 123,245.5C 124.812,244.023 126.645,242.69 128.5,241.5 Z"/></g>
<g><path style="opacity:0.895" fill="#000000" d="M 365.5,266.5 C 375.976,267.131 379.809,272.464 377,282.5C 373.212,287.153 368.378,288.653 362.5,287C 356.71,281.553 356.043,275.553 360.5,269C 362.315,268.243 363.981,267.41 365.5,266.5 Z"/></g>
<g><path style="opacity:0.885" fill="#000000" d="M 223.5,447.5 C 236.121,447.117 240.121,452.784 235.5,464.5C 229.373,469.954 223.54,469.62 218,463.5C 215.072,456.385 216.905,451.052 223.5,447.5 Z"/></g>
</svg>
