<?xml version="1.0" encoding="UTF-8"?>
<!DOCTYPE svg PUBLIC "-//W3C//DTD SVG 1.1//EN" "http://www.w3.org/Graphics/SVG/1.1/DTD/svg11.dtd">
<svg xmlns="http://www.w3.org/2000/svg" version="1.1" width="512px" height="512px" style="shape-rendering:geometricPrecision; text-rendering:geometricPrecision; image-rendering:optimizeQuality; fill-rule:evenodd; clip-rule:evenodd" xmlns:xlink="http://www.w3.org/1999/xlink">
<g><path style="opacity:0.971" fill="#000000" d="M 175.5,-0.5 C 184.833,-0.5 194.167,-0.5 203.5,-0.5C 248.04,8.53681 275.874,35.2035 287,79.5C 293.38,130.711 273.547,167.545 227.5,190C 217.867,193.908 207.867,196.242 197.5,197C 136.833,197.667 76.1667,197.667 15.5,197C 7.84985,195.179 2.51652,190.679 -0.5,183.5C -0.5,179.167 -0.5,174.833 -0.5,170.5C 2.38267,163.79 7.38267,159.29 14.5,157C 74.8333,156.667 135.167,156.333 195.5,156C 227.607,149.894 244.94,130.561 247.5,98C 244.118,62.784 224.784,43.284 189.5,39.5C 151.095,44.5872 131.262,66.5872 130,105.5C 122.773,118.906 112.273,122.072 98.5,115C 95.5665,112.736 93.3999,109.902 92,106.5C 89.0413,64.5841 105.541,32.7507 141.5,11C 152.442,5.6311 163.775,1.79776 175.5,-0.5 Z"/></g>
<g><path style="opacity:0.982" fill="#000000" d="M 511.5,162.5 C 511.5,172.167 511.5,181.833 511.5,191.5C 501.89,238.275 473.557,266.109 426.5,275C 315.167,275.667 203.833,275.667 92.5,275C 79.2961,268.318 75.7961,258.151 82,244.5C 84.5962,240.61 88.0962,237.777 92.5,236C 199.5,235.667 306.5,235.333 413.5,235C 443.597,232.569 462.431,216.736 470,187.5C 473.422,157.505 461.589,136.005 434.5,123C 407.084,113.727 384.25,120.227 366,142.5C 357.495,155.507 353.162,169.84 353,185.5C 345.41,197.274 335.243,200.108 322.5,194C 316.122,189.077 313.122,182.577 313.5,174.5C 317.452,124.747 343.452,93.2466 391.5,80C 436.846,72.6002 472.346,87.7669 498,125.5C 504.617,137.195 509.117,149.529 511.5,162.5 Z"/></g>
<g><path style="opacity:0.972" fill="#000000" d="M 348.5,511.5 C 339.167,511.5 329.833,511.5 320.5,511.5C 273.633,502.466 245.466,474.466 236,427.5C 235.333,420.5 235.333,413.5 236,406.5C 239.276,397.396 245.776,392.729 255.5,392.5C 263.744,392.704 269.911,396.371 274,403.5C 275.777,410.039 276.777,416.706 277,423.5C 284.731,452.899 303.731,468.899 334,471.5C 366.362,468.139 385.696,450.473 392,418.5C 393.362,393.72 383.528,374.887 362.5,362C 355.618,358.262 348.284,355.928 340.5,355C 231.833,354.667 123.167,354.333 14.5,354C 7.38267,351.71 2.38267,347.21 -0.5,340.5C -0.5,336.167 -0.5,331.833 -0.5,327.5C 2.51652,320.321 7.84985,315.821 15.5,314C 124.167,313.333 232.833,313.333 341.5,314C 386.074,319.115 415.407,342.949 429.5,385.5C 440.041,433.07 425.374,470.57 385.5,498C 373.805,504.617 361.471,509.117 348.5,511.5 Z"/></g>
</svg>
